#tb 0: 1/25
0,          0,          0,        1,   149760, 0xdb5e3b56
0,          1,          1,        1,   149760, 0x6d4418eb
0,          2,          2,        1,   149760, 0x0473e366
0,          3,          3,        1,   149760, 0x988ff70c
0,          4,          4,        1,   149760, 0x87cfb972
0,          5,          5,        1,   149760, 0x9f006c8d
0,          6,          6,        1,   149760, 0xa83fefd9
0,          7,          7,        1,   149760, 0xee501a46
0,          8,          8,        1,   149760, 0x04d29f74
0,          9,          9,        1,   149760, 0xc1ee00dc
0,         10,         10,        1,   149760, 0x274ef97b
0,         11,         11,        1,   149760, 0xebec6365
0,         12,         12,        1,   149760, 0x4555eb87
0,         13,         13,        1,   149760, 0x50c5ae52
0,         14,         14,        1,   149760, 0xf2861b67
0,         15,         15,        1,   149760, 0xd6de4556
0,         16,         16,        1,   149760, 0xc35d6134
